<?xml version="1.0" encoding="UTF-8"?>
<svg id="Capa_2" data-name="Capa 2" xmlns="http://www.w3.org/2000/svg" viewBox="0 0 593 593">
  <defs>
    <style>
      .cls-1 {
        fill: #2e2e2e;
        stroke: #2e2e2e;
        stroke-miterlimit: 10;
        stroke-width: 7px;
      }
    </style>
  </defs>
  <g id="Capa_1-2" data-name="Capa 1">
    <g>
      <g>
        <path class="cls-1" d="m441.66,244.21l-.56-1.4c-.35-.7-.7-1.41-1.16-2.11-6.73-12.66-18.1-19.1-31.91-19.69v-6.08s-5.45-11.02-11.55-11.02-11.13,4.92-10.72,11.02v5.84l-23.74,1.17h.64-1.81c-3.25,0-5.78-2.77-5.78-5.9,0-18.06-14.09-32.75-31.9-33.95-.24,0-.18,0-.18,0h-27.42c-8.56-.1-17.23-.1-25.78.02-1.29,0-3.87,1.15-3.87,1.15h-.59c-15.82,2.05-28,15.57-28.04,31.83,0,3.13-2.5,5.67-5.63,5.67h-.76s-.12,0-.23,0c-5.3,0-10.26-.12-16.02-.12v-6.06c0-6.18-4.61-11.4-10.61-11.4h.12c-5.99,0-10.61,5.23-10.61,11.4v6.18h-4.62c-15.88,0-28.55,7.38-35.31,19.1-.12.12-.36.47-.47.59-1.78,3.98-2.96,8.56-2.96,13.24v123.88c0,4.57,1.07,9.02,2.84,13.01.12.23.24.47.47.7,6.63,11.6,19.19,19.34,34,19.34,37.08,0,74.54.12,110.86.12s72.52,0,108.85-.12c13.81,0,25.99-7.62,32.61-18.87.12-.23.35-.47.46-.7,1.74-4.1,2.9-8.67,2.9-13.48v-123.65c0-3.48-.6-6.66-1.52-9.73Zm-144.92,139.72c-37.74,0-68.44-30.71-68.44-68.44,0-13.48,4.1-26.37,11.13-36.92,12.31-18.63,33.4-31.06,57.19-31.06s43.95,11.84,56.49,29.77c7.62,11.02,12.07,24.14,12.07,38.21-.12,37.74-30.82,68.44-68.44,68.44Z"/>
        <path class="cls-1" d="m296.73,264.74c-28.95,0-52.39,23.44-52.39,52.39s23.44,52.39,52.39,52.39,52.39-23.44,52.39-52.39-23.44-52.39-52.39-52.39Zm0,94.35c-23.21,0-41.96-18.87-41.96-41.96s18.87-41.96,41.96-41.96,41.96,18.87,41.96,41.96-18.87,41.96-41.96,41.96Z"/>
      </g>
      <path class="cls-1" d="m296.5,589.5c-78.29,0-151.89-30.47-207.21-85.79S3.5,374.79,3.5,296.5s30.47-151.89,85.79-207.21C144.61,33.97,218.21,3.5,296.5,3.5s151.89,30.47,207.21,85.79,85.79,128.92,85.79,207.21-30.47,151.89-85.79,207.21-128.92,85.79-207.21,85.79Zm0-567.25C145.31,22.25,22.25,145.31,22.25,296.5s123.06,274.25,274.25,274.25,274.25-123.06,274.25-274.25S447.69,22.25,296.5,22.25Z"/>
    </g>
  </g>
</svg>