<?xml version="1.0" encoding="UTF-8"?>
<svg id="Capa_2" data-name="Capa 2" xmlns="http://www.w3.org/2000/svg" viewBox="0 0 601.24 585.82">
  <defs>
    <style>
      .cls-1 {
        fill: #2e2e2e;
      }
    </style>
  </defs>
  <g id="Capa_1-2" data-name="Capa 1">
    <g>
      <path class="cls-1" d="m292.62,324.49c61.37,0,111.27-52.9,111.27-117.85s-49.91-117.95-111.27-117.95-111.27,52.9-111.27,117.85,49.91,117.95,111.27,117.95Z"/>
      <path class="cls-1" d="m389.49,301.56c-5.58-2.25-12.34-.39-16.65,4.6-20.86,24.48-51.21,38.48-83.33,38.48s-62.47-14-83.33-38.58c-4.31-4.99-10.97-6.85-16.55-4.6-48.57,19-81.47,64.92-83.91,117.11l-1.17,26.73c4.8,5.58,9.69,10.97,15.08,16.16,45.82,44.65,106.14,69.32,169.98,69.32s124.16-24.58,169.98-69.32c5.29-5.19,10.28-10.57,15.08-16.16l-1.17-26.73c-2.55-52.09-35.45-98.01-84.01-117.01Z"/>
      <path class="cls-1" d="m601.24,150.87c0-24.26-9.46-46.97-26.62-64.13-17.16-17.16-39.98-26.62-64.23-26.62-11.31,0-22.2,2.06-32.37,5.96C427.55,24.77,363.11,0,292.91,0,131.45,0,0,131.45,0,292.91c0,79.55,31.35,153.85,88.18,209.46,55.19,53.85,127.85,83.45,204.73,83.45,28.78,0,57.04-4.11,83.97-12.23,44.91-13.36,86.33-37.62,120.76-71.22,28.37-27.85,50.46-60.33,65.37-95.79,15.01-35.46,22.82-73.9,22.82-113.67,0-27.13-3.7-53.44-10.69-78.31,16.86-17.06,26.1-39.67,26.1-63.72Zm-105.14,312.95c-5.55,6.58-11.41,12.85-17.57,18.91-50.05,48.82-115.93,75.75-185.61,75.75s-135.56-26.93-185.61-75.75c-6.06-5.96-11.82-12.13-17.27-18.6-.21-.1-.31-.31-.41-.41-40.29-47.69-62.18-107.5-62.18-170.81C27.44,146.56,146.56,27.44,292.91,27.44c59.92,0,115.21,19.94,159.71,53.55-2.16,1.75-4.32,3.7-6.37,5.76-17.16,17.16-26.62,39.88-26.62,64.13s9.46,47.07,26.62,64.23c17.16,17.16,39.88,26.62,64.13,26.62,14.39,0,28.37-3.39,40.8-9.76,4.73,19.53,7.19,39.98,7.19,60.95,0,63.41-21.89,123.12-62.28,170.92Zm73.32-297.89c0,3.15-2.36,5.62-5.13,5.62h-35.98v35.97c0,2.88-2.47,5.14-5.5,5.14l-29.99.1c-1.46,0-2.92-.51-3.93-1.54-1.12-.92-1.68-2.26-1.68-3.6v-36.07h-35.97c-1.44,0-2.67-.67-3.7-1.68-.92-1.01-1.44-2.46-1.44-3.92v-29.91c0-3.14,2.36-5.6,5.14-5.6h35.97v-35.97c0-2.88,2.48-5.14,5.63-5.14h30.34c2.84,0,5.14,2.3,5.14,5.14v35.97h35.97c2.83,0,5.14,2.31,5.14,5.14v30.36Z"/>
    </g>
  </g>
</svg>