<?xml version="1.0" encoding="UTF-8"?>
<svg id="Capa_1" data-name="Capa 1" xmlns="http://www.w3.org/2000/svg" viewBox="0 0 630 623">
  <defs>
    <style>
      .cls-1, .cls-2 {
        fill: #fff;
      }

      .cls-2 {
        stroke: #fff;
        stroke-miterlimit: 10;
        stroke-width: 7px;
      }
    </style>
  </defs>
  <g>
    <g>
      <path class="cls-2" d="m468.39,262.71l-.56-1.4c-.35-.7-.7-1.41-1.16-2.11-6.73-12.66-18.1-19.1-31.91-19.69v-6.08s-5.45-11.02-11.55-11.02-11.13,4.92-10.72,11.02v5.84l-23.74,1.17h.64-1.81c-3.25,0-5.78-2.77-5.78-5.9,0-18.06-14.09-32.75-31.9-33.95-.24,0-.18,0-.18,0h-27.42c-8.56-.1-17.23-.1-25.78.02-1.29,0-3.87,1.15-3.87,1.15h-.59c-15.82,2.05-28,15.57-28.04,31.83,0,3.13-2.5,5.67-5.63,5.67h-.76s-.12,0-.23,0c-5.3,0-10.26-.12-16.02-.12v-6.06c0-6.18-4.61-11.4-10.61-11.4h.12c-5.99,0-10.61,5.23-10.61,11.4v6.18h-4.62c-15.88,0-28.55,7.38-35.31,19.1-.12.12-.36.47-.47.59-1.78,3.98-2.96,8.56-2.96,13.24v123.88c0,4.57,1.07,9.02,2.84,13.01.12.23.24.47.47.7,6.63,11.6,19.19,19.34,34,19.34,37.08,0,74.54.12,110.86.12s72.52,0,108.85-.12c13.81,0,25.99-7.62,32.61-18.87.12-.23.35-.47.46-.7,1.74-4.1,2.9-8.67,2.9-13.48v-123.65c0-3.48-.6-6.66-1.52-9.73Zm-144.92,139.72c-37.74,0-68.44-30.71-68.44-68.44,0-13.48,4.1-26.37,11.13-36.92,12.31-18.63,33.4-31.06,57.19-31.06s43.95,11.84,56.49,29.77c7.62,11.02,12.07,24.14,12.07,38.21-.12,37.74-30.82,68.44-68.44,68.44Z"/>
      <path class="cls-2" d="m323.47,283.24c-28.95,0-52.39,23.44-52.39,52.39s23.44,52.39,52.39,52.39,52.39-23.44,52.39-52.39-23.44-52.39-52.39-52.39Zm0,94.35c-23.21,0-41.96-18.87-41.96-41.96s18.87-41.96,41.96-41.96,41.96,18.87,41.96,41.96-18.87,41.96-41.96,41.96Z"/>
    </g>
    <path class="cls-2" d="m323.23,608c-78.29,0-151.89-30.47-207.21-85.79S30.23,393.29,30.23,315s30.47-151.89,85.79-207.21C171.34,52.47,244.94,22,323.23,22s151.89,30.47,207.21,85.79,85.79,128.92,85.79,207.21-30.47,151.89-85.79,207.21-128.92,85.79-207.21,85.79Zm0-567.25c-151.19,0-274.25,123.06-274.25,274.25s123.06,274.25,274.25,274.25,274.25-123.06,274.25-274.25S474.42,40.75,323.23,40.75Z"/>
  </g>
  <path class="cls-1" d="m-68.65,173.18c0-24.26-9.46-46.97-26.62-64.13-17.16-17.16-39.98-26.62-64.23-26.62-11.31,0-22.2,2.06-32.37,5.96-50.46-41.32-114.9-66.08-185.1-66.08-161.46,0-292.91,131.45-292.91,292.91,0,79.55,31.35,153.85,88.18,209.46,55.19,53.85,127.85,83.45,204.73,83.45,28.78,0,57.04-4.11,83.97-12.23,44.91-13.36,86.33-37.62,120.76-71.22,28.37-27.85,50.46-60.33,65.37-95.79,15.01-35.46,22.82-73.9,22.82-113.67,0-27.13-3.7-53.44-10.69-78.31,16.86-17.06,26.1-39.67,26.1-63.72Zm-105.14,312.95c-5.55,6.58-11.41,12.85-17.57,18.91-50.05,48.82-115.93,75.75-185.61,75.75s-135.56-26.93-185.61-75.75c-6.06-5.96-11.82-12.13-17.27-18.6-.21-.1-.31-.31-.41-.41-40.29-47.69-62.18-107.5-62.18-170.81,0-146.35,119.12-265.47,265.47-265.47,59.92,0,115.21,19.94,159.71,53.55-2.16,1.75-4.32,3.7-6.37,5.76-17.16,17.16-26.62,39.88-26.62,64.13s9.46,47.07,26.62,64.23c17.16,17.16,39.88,26.62,64.13,26.62,14.39,0,28.37-3.39,40.8-9.76,4.73,19.53,7.19,39.98,7.19,60.95,0,63.41-21.89,123.12-62.28,170.92ZM-100.48,188.25c0,3.15-2.36,5.62-5.13,5.62h-35.98v35.97c0,2.88-2.47,5.14-5.5,5.14l-29.99.1c-1.46,0-2.92-.51-3.93-1.54-1.12-.92-1.68-2.26-1.68-3.6v-36.07h-35.97c-1.44,0-2.67-.67-3.7-1.68-.92-1.01-1.44-2.46-1.44-3.92v-29.91c0-3.14,2.36-5.6,5.14-5.6h35.97v-35.97c0-2.88,2.48-5.14,5.63-5.14h30.34c2.84,0,5.14,2.3,5.14,5.14v35.97h35.97c2.83,0,5.14,2.31,5.14,5.14v30.36Zm477.86,597.02c0-24.26-9.46-46.97-26.62-64.13-17.16-17.16-39.98-26.62-64.23-26.62-11.31,0-22.2,2.06-32.37,5.96-50.46-41.32-114.9-66.08-185.1-66.08-161.46,0-292.91,131.45-292.91,292.91,0,79.55,31.35,153.85,88.18,209.46,55.19,53.85,127.85,83.45,204.73,83.45,28.78,0,57.04-4.11,83.97-12.23,44.91-13.36,86.33-37.62,120.76-71.22,28.37-27.85,50.46-60.33,65.37-95.79,15.01-35.46,22.82-73.9,22.82-113.67,0-27.13-3.7-53.44-10.69-78.31,16.86-17.06,26.1-39.67,26.1-63.72Zm-105.43,311.13c-5.55,6.58-11.41,12.85-17.57,18.91-50.05,48.82-115.93,75.75-185.61,75.75s-135.56-26.93-185.61-75.75c-6.06-5.96-11.82-12.13-17.27-18.6-.21-.1-.31-.31-.41-.41-40.29-47.69-62.18-107.5-62.18-170.81,0-146.35,119.12-265.47,265.47-265.47,59.92,0,115.21,19.94,159.71,53.55-2.16,1.75-4.32,3.7-6.37,5.76-17.16,17.16-26.62,39.88-26.62,64.13s9.46,47.07,26.62,64.23c17.16,17.16,39.88,26.62,64.13,26.62,14.39,0,28.37-3.39,40.8-9.76,4.73,19.53,7.19,39.98,7.19,60.95,0,63.41-21.89,123.12-62.28,170.92Zm77.48-298.98c0,3.15-2.36,5.62-5.13,5.62h-35.98v35.97c0,2.88-2.47,5.14-5.5,5.14l-29.99.1c-1.46,0-2.92-.51-3.93-1.54-1.12-.92-1.68-2.26-1.68-3.6v-36.07h-35.97c-1.44,0-2.67-.67-3.7-1.68-.92-1.01-1.44-2.46-1.44-3.92v-29.91c0-3.14,2.36-5.6,5.14-5.6h35.97v-35.97c0-2.88,2.48-5.14,5.63-5.14h30.34c2.84,0,5.14,2.3,5.14,5.14v35.97h35.97c2.83,0,5.14,2.31,5.14,5.14v30.36Zm-135.92,76.4l-.56-1.4c-.35-.7-.7-1.41-1.16-2.11-6.73-12.66-18.1-19.1-31.91-19.69v-6.08s-5.45-11.02-11.55-11.02-11.13,4.92-10.72,11.02v5.84l-23.74,1.17h.64-1.81c-3.25,0-5.78-2.77-5.78-5.9,0-18.06-14.09-32.75-31.9-33.95-.24,0-.18,0-.18,0h-27.42c-8.56-.1-17.23-.1-25.78.02-1.29,0-3.87,1.15-3.87,1.15h-.59c-15.82,2.05-28,15.57-28.04,31.83,0,3.13-2.5,5.67-5.63,5.67h-.76s-.12,0-.23,0c-5.3,0-10.26-.12-16.02-.12v-6.06c0-6.18-4.61-11.4-10.61-11.4h.12c-5.99,0-10.61,5.23-10.61,11.4v6.18h-4.62c-15.88,0-28.55,7.38-35.31,19.1-.12.12-.36.47-.47.59-1.78,3.98-2.96,8.56-2.96,13.24v123.88c0,4.57,1.07,9.02,2.84,13.01.12.23.24.47.47.7,6.63,11.6,19.19,19.34,34,19.34,37.08,0,74.54.12,110.86.12s72.52,0,108.85-.12c13.81,0,25.99-7.62,32.61-18.87.12-.23.35-.47.46-.7,1.74-4.1,2.9-8.67,2.9-13.48v-123.65c0-3.48-.6-6.66-1.52-9.73Zm-144.92,139.72C30.85,1013.54.15,982.84.15,945.1c0-13.48,4.1-26.37,11.13-36.92,12.31-18.63,33.4-31.06,57.19-31.06s43.95,11.84,56.49,29.77c7.62,11.02,12.07,24.14,12.07,38.21-.12,37.74-30.82,68.44-68.44,68.44Z"/>
</svg>